<?xml version="1.0" encoding="UTF-8" standalone="no"?><!-- Generator: Gravit.io --><svg xmlns="http://www.w3.org/2000/svg" xmlns:xlink="http://www.w3.org/1999/xlink" style="isolation:isolate" viewBox="687.662 428.933 110.677 111.134" width="110.677pt" height="111.134pt"><defs><clipPath id="_clipPath_0RTfXVxQohgbBlDjdgTLzCUK0K9oDZa1"><rect x="687.662" y="428.933" width="110.677" height="111.134"/></clipPath></defs><g clip-path="url(#_clipPath_0RTfXVxQohgbBlDjdgTLzCUK0K9oDZa1)"><g><path d=" M 739.191 429.281 C 733.559 430.338 728.221 433.806 725.048 438.504 C 723.991 440.054 721.974 444.112 722.146 444.309 C 722.22 444.358 723.351 444.678 724.704 445.022 C 727.582 445.736 732.255 447.998 734.641 449.794 C 736.904 451.491 740.077 454.861 741.552 457.124 C 742.241 458.181 742.881 459.042 743.004 459.042 C 743.127 459.042 743.766 458.181 744.455 457.148 C 746.029 454.713 748.98 451.614 751.465 449.769 C 754.097 447.802 758.278 445.785 761.303 445.022 C 762.656 444.678 763.812 444.358 763.861 444.284 C 764.156 444.014 761.328 438.922 759.901 437.151 C 754.884 430.904 746.791 427.854 739.191 429.281 Z " fill="rgb(0,0,0)"/><path d=" M 785.654 429.354 C 784.449 429.994 771.289 443.522 771.511 443.866 C 771.609 444.038 772.691 444.334 773.897 444.53 C 775.126 444.727 776.848 445.121 777.783 445.391 L 779.431 445.908 L 784.768 440.447 C 787.695 437.447 790.302 434.667 790.524 434.224 C 792.172 431.224 788.655 427.706 785.654 429.354 Z " fill="rgb(0,0,0)"/><path d=" M 713.143 451.663 C 709.405 452.45 706.134 453.951 703.231 456.263 C 698.755 459.829 695.631 465.757 695.114 471.636 L 694.967 473.431 L 717.177 473.431 L 739.388 473.431 L 739.216 471.586 C 738.355 462.191 731.788 454.418 722.711 452.008 C 720.153 451.344 715.529 451.171 713.143 451.663 Z " fill="rgb(0,0,0)"/><path d=" M 764.796 451.663 C 761.057 452.45 757.786 453.951 754.884 456.263 C 750.407 459.829 747.283 465.757 746.767 471.636 L 746.619 473.431 L 748.98 473.431 C 753.285 473.431 755.72 474.317 758.155 476.727 C 759.754 478.35 760.738 480.121 761.18 482.237 C 761.352 483.048 761.451 486.664 761.451 491.78 C 761.451 499.553 761.475 500.069 761.943 500.979 C 762.509 502.086 763.911 502.947 765.14 502.947 C 766.37 502.947 767.772 502.086 768.338 500.979 C 768.805 500.069 768.83 499.553 768.83 491.78 C 768.83 486.664 768.928 483.048 769.1 482.237 C 769.986 478.031 773.405 474.612 777.635 473.702 C 778.398 473.554 781.399 473.431 784.99 473.431 L 791.04 473.431 L 790.868 471.586 C 790.007 462.191 783.44 454.418 774.364 452.008 C 771.806 451.344 767.182 451.171 764.796 451.663 Z " fill="rgb(0,0,0)"/><path d=" M 692.704 481.253 C 691.105 481.794 690.023 482.581 689.113 483.835 C 688.031 485.311 687.662 486.91 687.662 489.96 C 687.662 493.182 688.08 494.289 689.629 495.076 C 690.589 495.568 691.007 495.568 722.343 495.568 L 754.072 495.568 L 754.072 489.665 C 754.072 484.204 754.023 483.663 753.58 482.778 C 753.26 482.138 752.744 481.622 752.104 481.302 C 751.145 480.81 750.727 480.81 722.539 480.81 C 696.024 480.835 693.835 480.859 692.704 481.253 Z " fill="rgb(0,0,0)"/><path d=" M 778.127 481.302 C 777.562 481.597 776.996 482.187 776.701 482.778 C 776.258 483.663 776.209 484.204 776.209 489.665 L 776.209 495.568 L 785.801 495.568 C 794.951 495.568 795.468 495.543 796.378 495.076 C 797.017 494.756 797.534 494.24 797.878 493.551 C 798.346 492.641 798.395 492.223 798.296 489.443 C 798.223 486.639 798.149 486.197 797.534 484.942 C 796.747 483.368 795.566 482.212 793.943 481.45 C 792.885 480.958 792.344 480.933 785.924 480.884 C 779.431 480.81 778.988 480.835 778.127 481.302 Z " fill="rgb(0,0,0)"/><path d=" M 696.516 503.316 C 696.516 504.004 698.287 509.194 699.345 511.556 C 702.173 517.951 707.511 524.911 712.971 529.314 C 727.459 541.022 746.816 543.359 763.394 535.39 C 768.83 532.782 773.183 529.609 777.463 525.133 C 782.678 519.672 786.293 513.622 788.605 506.464 C 789.097 504.939 789.491 503.537 789.491 503.316 C 789.491 502.996 788.581 502.947 782.53 502.947 L 775.545 502.947 L 774.954 504.226 C 773.356 507.669 769.076 510.326 765.14 510.326 C 761.205 510.326 756.925 507.669 755.326 504.226 L 754.736 502.947 L 725.614 502.947 C 699.763 502.947 696.516 502.996 696.516 503.316 Z " fill="rgb(0,0,0)"/></g></g></svg>